<svg height="512pt" viewBox="0 -34 512.02883 512" width="512pt" xmlns="http://www.w3.org/2000/svg"><path d="m311.90625 406.21875-55.890625 29.015625-55.894531-29.015625c-33.308594-17.160156-64.421875-38.277344-92.671875-62.890625-67.414063-59.390625-114.261719-140.203125-94.292969-233.214844 6.433594-33.011719 25.878906-62.046875 53.949219-80.570312 28.074219-18.523438 62.417969-24.976563 95.296875-17.90625 46.035156 11.085937 82.105468 46.828125 93.613281 92.757812 11.507813-45.929687 47.574219-81.671875 93.609375-92.757812 13.453125-3.101563 27.339844-3.851563 41.046875-2.21875 53.90625 6.933593 97.414063 47.425781 108.203125 100.695312 28.328125 132.179688-77.996094 239.617188-186.96875 296.105469zm0 0" fill="#c81e1e"/><path d="m443.746094 153.292969c.019531 79.996093-43.039063 153.804687-112.6875 193.164062-69.648438 39.355469-155.089844 38.160157-223.609375-3.128906-67.414063-59.390625-114.261719-140.203125-94.292969-233.214844 6.433594-33.011719 25.878906-62.046875 53.949219-80.570312 28.074219-18.523438 62.417969-24.976563 95.296875-17.90625 46.035156 11.085937 82.105468 46.828125 93.613281 92.757812 11.507813-45.929687 47.574219-81.671875 93.609375-92.757812 13.453125-3.101563 27.339844-3.851563 41.046875-2.21875 34.332031 40.066406 53.164063 91.109375 53.074219 143.875zm0 0" fill="#f44335"/><path d="m187.746094 243.234375c0-11.785156-17.191406-21.335937-38.398438-21.335937-21.207031 0-38.398437 9.550781-38.398437 21.335937 0 11.78125 17.191406 21.332031 38.398437 21.332031 21.207032 0 38.398438-9.550781 38.398438-21.332031zm0 0" fill="#bb193b"/><path d="m401.082031 243.234375c0-11.785156-17.191406-21.335937-38.402343-21.335937-21.207032 0-38.398438 9.550781-38.398438 21.335937 0 11.78125 17.191406 21.332031 38.398438 21.332031 21.210937 0 38.402343-9.550781 38.402343-21.332031zm0 0" fill="#bb193b"/><path d="m446.761719 20.511719c-29.347657-18.851563-65.070313-25.039063-99.046875-17.152344-40.6875 9.570313-74.589844 37.550781-91.699219 75.683594-17.117187-38.128907-51.015625-66.109375-91.699219-75.683594-33.988281-7.871094-69.710937-1.660156-99.046875 17.214844-31.160156 19.898437-52.953125 51.546875-60.425781 87.753906-29.335938 136.902344 79.597656 247.542969 191.316406 305.484375l55.929688 29.015625c2.460937 1.273437 5.386718 1.273437 7.851562 0l55.925782-29.015625c111.71875-57.914062 220.65625-168.582031 191.316406-305.492188-7.464844-36.222656-29.257813-67.890624-60.421875-87.808593zm-138.746094 378.15625-52 26.957031-52.003906-26.957031c-106.128907-55.023438-209.808594-159.25-182.484375-286.761719 6.53125-31.734375 25.613281-59.480469 52.90625-76.9375 25.480468-16.414062 56.519531-21.816406 86.050781-14.976562 42.964844 10.308593 76.613281 43.683593 87.269531 86.5625.976563 3.761718 4.371094 6.390624 8.261719 6.390624 3.886719 0 7.285156-2.628906 8.257813-6.390624 10.664062-42.890626 44.332031-76.269532 87.3125-86.5625 29.515624-6.824219 60.535156-1.429688 86.007812 14.960937 27.296875 17.460937 46.378906 45.210937 52.90625 76.953125 27.324219 127.511719-76.355469 231.738281-182.484375 286.761719zm0 0"/><path d="m152.828125 53.253906c2.972656.6875 6.082031-.265625 8.160156-2.496094 2.078125-2.230468 2.808594-5.402343 1.917969-8.316406-.894531-2.914062-3.273438-5.132812-6.246094-5.816406-7.039062-1.625-14.238281-2.449219-21.460937-2.457031-47.378907 1.058593-87.675781 34.851562-96.972657 81.320312-.984374 4.605469 1.941407 9.136719 6.546876 10.128907.589843.125 1.195312.1875 1.800781.1875 4.019531 0 7.492187-2.808594 8.335937-6.742188 7.589844-38.613281 40.949219-66.796875 80.289063-67.828125 5.933593.007813 11.847656.683594 17.628906 2.019531zm0 0"/><path d="m130.515625 232.933594-8.535156 8.53125c-2.21875 2.144531-3.105469 5.316406-2.324219 8.300781.777344 2.984375 3.109375 5.3125 6.09375 6.09375 2.980469.78125 6.15625-.109375 8.296875-2.328125l8.535156-8.53125c3.234375-3.347656 3.1875-8.671875-.105469-11.960938-3.292968-3.292968-8.613281-3.339843-11.960937-.105468zm0 0"/><path d="m164.648438 232.933594-8.535157 8.53125c-2.21875 2.144531-3.105469 5.316406-2.324219 8.300781s3.109376 5.3125 6.09375 6.09375c2.984376.78125 6.15625-.109375 8.296876-2.328125l8.535156-8.53125c3.234375-3.347656 3.1875-8.671875-.105469-11.960938-3.289063-3.292968-8.613281-3.339843-11.960937-.105468zm0 0"/><path d="m381.515625 232.933594c-3.351563-3.234375-8.671875-3.1875-11.964844.105468-3.289062 3.289063-3.335937 8.613282-.101562 11.960938l8.53125 8.53125c3.347656 3.234375 8.671875 3.1875 11.964843-.101562 3.289063-3.292969 3.335938-8.613282.101563-11.964844zm0 0"/><path d="m347.378906 232.933594c-3.347656-3.234375-8.667968-3.1875-11.960937.105468-3.289063 3.289063-3.335938 8.613282-.101563 11.960938l8.53125 8.53125c3.347656 3.234375 8.671875 3.1875 11.960938-.101562 3.292968-3.292969 3.339844-8.613282.105468-11.964844zm0 0"/><path d="m51.214844 153.632812c0 4.714844-3.820313 8.535157-8.535156 8.535157-4.710938 0-8.53125-3.820313-8.53125-8.535157 0-4.710937 3.820312-8.535156 8.53125-8.535156 4.714843 0 8.535156 3.824219 8.535156 8.535156zm0 0"/><path d="m191.5625 180.128906-34.132812-17.066406c-4.21875-2.105469-9.347657-.394531-11.453126 3.824219-2.105468 4.214843-.394531 9.34375 3.824219 11.449219l18.867188 9.429687-18.867188 9.429687c-4.21875 2.105469-5.929687 7.234376-3.824219 11.453126 2.105469 4.21875 7.234376 5.929687 11.453126 3.820312l34.132812-17.066406c2.894531-1.441406 4.726562-4.398438 4.726562-7.636719 0-3.234375-1.832031-6.191406-4.726562-7.636719zm0 0"/><path d="m366.09375 166.886719c-1.011719-2.027344-2.785156-3.570313-4.933594-4.285157-2.148437-.71875-4.492187-.550781-6.515625.460938l-34.136719 17.066406c-2.894531 1.445313-4.726562 4.402344-4.726562 7.636719 0 3.238281 1.832031 6.195313 4.726562 7.636719l34.136719 17.066406c4.214844 2.109375 9.34375.398438 11.449219-3.820312s.394531-9.347657-3.824219-11.453126l-18.90625-9.429687 18.867188-9.386719c2.042969-1.003906 3.601562-2.78125 4.328125-4.941406.726562-2.15625.558594-4.515625-.464844-6.550781zm0 0"/><path d="m256.015625 221.898438c-50.621094 0-51.203125 33.792968-51.203125 34.132812-.050781 4.714844 3.730469 8.578125 8.441406 8.628906 4.710938.050782 8.574219-3.726562 8.628906-8.441406.082032-1.765625 1.757813-17.253906 34.132813-17.253906s34.046875 15.488281 34.132813 17.066406c0 4.714844 3.820312 8.535156 8.53125 8.535156 4.714843 0 8.535156-3.820312 8.535156-8.535156 0-.339844-.582032-34.132812-51.199219-34.132812zm0 0"/></svg>