<svg height="480pt" viewBox="0 -16 480.00003 480" width="480pt" xmlns="http://www.w3.org/2000/svg"><path d="m472 128.007812c.03125-57.871093-41.265625-107.511718-98.175781-118.011718-56.910157-10.5-113.203125 21.136718-133.824219 75.210937-20.621094-54.074219-76.910156-85.710937-133.824219-75.210937-56.910156 10.5-98.207031 60.140625-98.175781 118.011718 0 136 165.726562 312 232 312s232-176 232-312zm0 0" fill="#fa507f"/><path d="m184 200.007812c-4.417969 0-8-3.582031-8-8 0-21.683593-10.992188-40-24-40s-24 18.316407-24 40c0 4.417969-3.582031 8-8 8s-8-3.582031-8-8c0-31.402343 17.601562-56 40-56s40 24.597657 40 56c0 4.417969-3.582031 8-8 8zm0 0" fill="#603913"/><path d="m360 200.007812c-4.417969 0-8-3.582031-8-8 0-21.683593-10.992188-40-24-40s-24 18.316407-24 40c0 4.417969-3.582031 8-8 8s-8-3.582031-8-8c0-31.402343 17.601562-56 40-56s40 24.597657 40 56c0 4.417969-3.582031 8-8 8zm0 0" fill="#603913"/><path d="m240 328.007812c-26.910156 0-48-31.625-48-72 0-4.421874 3.582031-8 8-8s8 3.578126 8 8c0 30.351563 14.65625 56 32 56s32-25.648437 32-56c0-4.421874 3.582031-8 8-8s8 3.578126 8 8c0 40.375-21.089844 72-48 72zm0 0" fill="#a21d1f"/><path d="m352 .0078125c-46.570312.2187495-89.394531 25.5624995-112 66.2773435-28.140625-51.183594-87.378906-76.800781-143.945312-62.253906-56.570313 14.546875-96.0976568 65.566406-96.054688 123.976562 0 137.40625 164.671875 320 240 320s240-182.59375 240-320c-.082031-70.660156-57.34375-127.9179682-128-127.9999995zm-112 431.9999995c-60 0-224-172.347656-224-304-.03125-54.015624 38.511719-100.347656 91.628906-110.148437 53.117188-9.796875 105.65625 19.734375 124.898438 70.203125 1.183594 3.097656 4.15625 5.140625 7.472656 5.140625s6.289062-2.042969 7.472656-5.140625c19.242188-50.46875 71.78125-80 124.898438-70.203125 53.117187 9.800781 91.660156 56.132813 91.628906 110.148437 0 131.652344-164 304-224 304zm0 0"/><path d="m152 136.007812c-22.398438 0-40 24.597657-40 56 0 4.417969 3.582031 8 8 8s8-3.582031 8-8c0-21.683593 10.992188-40 24-40s24 18.316407 24 40c0 4.417969 3.582031 8 8 8s8-3.582031 8-8c0-31.402343-17.601562-56-40-56zm0 0"/><path d="m328 136.007812c-22.398438 0-40 24.597657-40 56 0 4.417969 3.582031 8 8 8s8-3.582031 8-8c0-21.683593 10.992188-40 24-40s24 18.316407 24 40c0 4.417969 3.582031 8 8 8s8-3.582031 8-8c0-31.402343-17.601562-56-40-56zm0 0"/><path d="m280 248.007812c-4.417969 0-8 3.578126-8 8 0 30.351563-14.65625 56-32 56s-32-25.648437-32-56c0-4.421874-3.582031-8-8-8s-8 3.578126-8 8c0 40.375 21.089844 72 48 72s48-31.625 48-72c0-4.421874-3.582031-8-8-8zm0 0"/></svg>